<svg width="24" height="24" viewBox="0 0 24 24" fill="none" xmlns="http://www.w3.org/2000/svg">
<g clip-path="url(#clip0_1046_432)">
<path d="M20.2295 19.6098C20.1158 19.6099 20.0048 19.5804 19.9117 19.5254C19.8186 19.4704 19.7478 19.3924 19.709 19.3022C19.6702 19.212 19.6653 19.1139 19.6948 19.0212C19.7244 18.9286 19.7871 18.8459 19.8744 18.7843C19.9616 18.7228 20.0692 18.6855 20.1825 18.6774C20.2958 18.6694 20.4092 18.691 20.5075 18.7393C20.6057 18.7876 20.6839 18.8603 20.7315 18.9474C20.779 19.0346 20.7936 19.132 20.7732 19.2265C20.7492 19.3336 20.6819 19.4304 20.5827 19.5004C20.4835 19.5703 20.3587 19.609 20.2295 19.6098Z" fill="#019376" stroke="#019376" stroke-width="0.1"/>
<path d="M20.4822 8.62851C19.6741 7.49369 18.5113 6.66922 17.1827 6.28906C16.186 6.06986 15.1527 6.0887 14.1645 6.3441L14.1309 6.3521L14.0411 6.37211C13.9681 6.38912 13.8556 6.41714 13.7351 6.44816C13.5772 6.48919 13.4163 6.52621 13.2564 6.55623C13.2564 6.43482 13.2518 6.31007 13.2426 6.182C13.3595 4.67803 14.0161 3.26969 15.0883 2.22355C15.6411 1.66609 16.2875 1.21306 16.9971 0.885724C17.0987 0.832223 17.1771 0.742469 17.2172 0.633791C17.2574 0.525114 17.2563 0.40522 17.2144 0.297258C17.1724 0.189296 17.0925 0.100922 16.99 0.0491985C16.8876 -0.00252465 16.7698 -0.0139289 16.6596 0.0171876C15.844 0.381495 15.1005 0.893129 14.4655 1.52712C13.7603 2.2173 13.2029 3.04739 12.8281 3.96563C12.6007 3.27664 12.2232 2.6484 11.7237 2.12749C9.62631 0.00417968 5.69613 0.665588 5.46419 0.706613C5.38089 0.71946 5.30281 0.755702 5.23879 0.811233C5.17477 0.866765 5.12737 0.939365 5.10197 1.02081C5.09514 1.04248 5.08954 1.06453 5.08519 1.08685C5.05854 1.23794 4.51965 4.43492 5.87478 6.64728C4.6435 7.30489 3.62468 8.30755 2.93976 9.53576C2.25484 10.764 1.93269 12.1659 2.01171 13.5746C2.07351 15.1647 2.45717 16.7249 3.13885 18.1584C3.79949 19.6724 4.71604 21.0578 5.84714 22.2519C6.69476 23.257 7.8976 23.8847 9.19697 24C9.82538 23.9992 10.4504 23.9061 11.0525 23.7238C11.6339 23.5457 12.2526 23.5342 12.8399 23.6908H12.8459L12.9544 23.7218C13.5577 23.9052 14.1841 23.9989 14.8139 24C16.0464 23.898 17.1939 23.3225 18.0216 22.391C20.3412 20.0262 21.7514 16.8992 21.9982 13.5736C22.0353 11.8021 21.5032 10.0665 20.4822 8.62851ZM11.0693 2.7869C11.87 3.738 12.3096 4.94759 12.3089 6.19801C12.2922 6.40914 12.2843 7.33071 12.2843 7.33071L8.77454 3.78151C8.68696 3.69761 8.57056 3.65164 8.45007 3.65338C8.32959 3.65511 8.21452 3.7044 8.12931 3.79078C8.04411 3.87716 7.99549 3.99382 7.99378 4.11597C7.99207 4.23812 8.03741 4.35613 8.12017 4.44492L11.6556 8.02313C10.4475 8.08917 8.35606 7.99612 7.14305 6.76736C5.68429 5.28844 5.84418 2.53875 5.95078 1.58616C6.89137 1.47809 9.6125 1.31599 11.0693 2.7869ZM17.3801 21.7146C16.7213 22.4736 15.8055 22.9542 14.8139 23.0614C14.2762 23.0597 13.7414 22.9802 13.2259 22.8253L13.0867 22.7853C12.3316 22.5823 11.5358 22.5962 10.788 22.8253C10.2724 22.9802 9.73767 23.0597 9.19993 23.0614C8.14774 22.9402 7.18205 22.4127 6.50349 21.5885C4.43779 19.4148 3.17811 16.5832 2.93849 13.5746C2.93849 10.1274 4.79205 8.1272 6.46302 7.40775L6.48671 7.43177C7.76928 8.52653 9.41733 9.0806 11.091 8.97972C11.6436 8.98504 12.1957 8.94286 12.7412 8.85365C13.1104 8.7716 13.1015 8.59749 13.1242 8.48942V8.47241C13.1761 8.15265 13.2114 7.83034 13.2298 7.50681C13.2573 7.50692 13.2847 7.50457 13.3117 7.49981C13.5289 7.46179 13.747 7.41476 13.9612 7.35772C14.0441 7.33571 14.124 7.3157 14.1901 7.29969C16.099 7.9741 17.9861 10.1504 17.9861 13.5726C17.9478 14.7606 17.698 15.9318 17.2488 17.0297C17.2244 17.0876 17.2117 17.1499 17.2115 17.2129C17.2113 17.2759 17.2236 17.3383 17.2477 17.3963C17.2717 17.4544 17.3071 17.507 17.3517 17.5509C17.3962 17.5948 17.449 17.6291 17.507 17.6519C17.5649 17.6747 17.6267 17.6854 17.6888 17.6835C17.7509 17.6815 17.812 17.6669 17.8684 17.6404C17.9248 17.614 17.9754 17.5764 18.0172 17.5297C18.0589 17.4831 18.091 17.4284 18.1114 17.3689C18.6024 16.1626 18.8736 14.876 18.9119 13.5716C18.9646 12.3111 18.7069 11.0571 18.162 9.92286C17.6172 8.7886 16.8023 7.80972 15.791 7.07455C16.1796 7.06163 16.5682 7.1027 16.9458 7.19662C18.9326 7.71794 21.0714 9.93531 21.0714 13.5716C20.8197 16.6404 19.5133 19.5223 17.3801 21.7146Z" fill="#019376" stroke="#019376" stroke-width="0.1"/>
</g>
<defs>
<clipPath id="clip0_1046_432">
<rect width="24" height="24" fill="white"/>
</clipPath>
</defs>
</svg>
